<svg xmlns="http://www.w3.org/2000/svg" viewBox="0 0 32 32">
    <g data-name="Layer 2">
        <g data-name="Layer 1">
            <path fill="none" d="M0 0h32v32H0z"/>
            <path d="M22.69 19.7a.54.54 0 000-.22v-7.22a.61.61 0 00-.61-.61H9.82a.61.61 0 00-.61.61v7.22a.56.56 0 00.12.36c1.09-1.22 3-3.35 3.48-3.35.62 0 2.59 2.37 2.59 2.37s3-3.59 3.71-3.59c.53 0 2.53 2.86 3.58 4.43zM8 11.66a1.22 1.22 0 011.23-1.21h13.56A1.21 1.21 0 0124 11.66v8.68a1.22 1.22 0 01-1.23 1.21H9.21A1.21 1.21 0 018 20.34v-8.68zm3.69 3.61a1.21 1.21 0 10-1.23-1.21 1.22 1.22 0 001.23 1.21z" fill="#2e4063" fill-rule="evenodd"/>
        </g>
    </g>
</svg>
