<svg xmlns="http://www.w3.org/2000/svg" viewBox="0 0 166.12 39.22"><defs><style>.cls-1{fill:#fff;}.cls-2{fill:#b22535;}</style></defs><title>nav_logo</title><g id="Layer_2" data-name="Layer 2"><g id="Layer_1-2" data-name="Layer 1"><path class="cls-1" d="M93.86,27.82H92.7a.32.32,0,0,1-.36-.36V13.17c0-.15-.08-.23-.25-.23h-3.5c-.26,0-.38-.12-.38-.36v-.93c0-.24.12-.36.38-.36H98q.39,0,.39.36v.93q0,.36-.39.36H94.48c-.17,0-.26.08-.26.23V27.46A.32.32,0,0,1,93.86,27.82Z"/><path class="cls-1" d="M101,27.82H99.72c-.22,0-.3-.12-.23-.36l4.81-15.81a.46.46,0,0,1,.49-.36h1.85a.47.47,0,0,1,.49.36l4.8,15.81c.07.24,0,.36-.23.36h-1.31q-.28,0-.36-.36l-1.21-3.75H102.6l-1.21,3.75C101.32,27.7,101.2,27.82,101,27.82Zm4.65-14.6L103,22.12h5.4l-2.65-8.9Z"/><path class="cls-1" d="M116.69,11.65V27.46a.32.32,0,0,1-.36.36h-1.16a.32.32,0,0,1-.36-.36V11.65a.32.32,0,0,1,.36-.36h1.16A.32.32,0,0,1,116.69,11.65Z"/><path class="cls-1" d="M125.25,27.82h-2a.41.41,0,0,1-.44-.36l-3.29-15.81c-.05-.24.06-.36.34-.36h1.38a.36.36,0,0,1,.42.36l2.59,14.17h.16l3.47-14.19a.39.39,0,0,1,.41-.34h1.54a.39.39,0,0,1,.41.34l3.52,14.19h.16l2.57-14.14a.42.42,0,0,1,.44-.39h1.38c.28,0,.39.13.34.39l-3.32,15.78a.39.39,0,0,1-.41.36h-2a.42.42,0,0,1-.44-.36l-3.36-13.8h-.11l-3.39,13.8A.39.39,0,0,1,125.25,27.82Z"/><path class="cls-1" d="M141.57,27.82h-1.28c-.23,0-.3-.12-.23-.36l4.8-15.81a.46.46,0,0,1,.49-.36h1.85a.46.46,0,0,1,.49.36l4.81,15.81c.07.24,0,.36-.23.36H151q-.28,0-.36-.36l-1.21-3.75h-6.22L142,27.46Q141.85,27.82,141.57,27.82Zm4.66-14.6-2.65,8.9H149l-2.65-8.9Z"/><path class="cls-1" d="M156.74,27.82h-1.13a.32.32,0,0,1-.36-.36V11.65a.32.32,0,0,1,.36-.36h1a.4.4,0,0,1,.41.21L164.17,24h.1V11.65a.32.32,0,0,1,.36-.36h1.13a.32.32,0,0,1,.36.36V27.46a.32.32,0,0,1-.36.36h-.95a.7.7,0,0,1-.54-.33L157.2,15.15h-.1V27.46A.32.32,0,0,1,156.74,27.82Z"/><rect class="cls-1" x="76.22" width="0.51" height="39.22"/><polygon class="cls-1" points="8.04 39.21 5.4 37 2.77 39.21 0 39.21 4.02 35.82 0.24 32.61 2.94 32.61 5.38 34.67 7.82 32.61 10.59 32.61 6.76 35.84 10.76 39.21 8.04 39.21 8.04 39.21"/><polygon class="cls-1" points="22.75 39.21 22.75 32.62 31.76 32.62 31.76 33.96 24.58 33.96 24.58 35.25 31.76 35.25 31.76 36.58 24.58 36.58 24.58 37.87 31.75 37.87 31.75 39.21 22.75 39.21 22.75 39.21"/><polygon class="cls-1" points="15.45 39.2 15.45 33.97 11.85 33.97 11.85 32.63 20.86 32.63 20.86 33.95 17.28 33.95 17.28 39.2 15.45 39.2 15.45 39.2"/><polygon class="cls-1" points="43.8 39.21 43.8 32.63 52.28 32.63 52.28 33.96 45.63 33.96 45.63 39.21 43.8 39.21 43.8 39.21"/><polygon class="cls-1" points="33.84 39.2 33.84 32.62 41.78 32.62 41.78 33.96 35.67 33.96 35.67 39.2 33.84 39.2 33.84 39.2"/><path class="cls-1" d="M55.94,35.24h5.35V34H55.94v1.26Zm5.36,4V36.6H55.93v2.6H54.1V32.61h9v6.61Z"/><polygon class="cls-1" points="22.75 39.21 22.75 32.62 31.76 32.62 31.76 33.96 24.58 33.96 24.58 35.25 31.76 35.25 31.76 36.58 24.58 36.58 24.58 37.87 31.75 37.87 31.75 39.21 22.75 39.21 22.75 39.21"/><polygon class="cls-1" points="15.45 39.2 15.45 33.97 11.85 33.97 11.85 32.63 20.86 32.63 20.86 33.95 17.28 33.95 17.28 39.2 15.45 39.2 15.45 39.2"/><polygon class="cls-1" points="43.8 39.21 43.8 32.63 52.28 32.63 52.28 33.96 45.63 33.96 45.63 39.21 43.8 39.21 43.8 39.21"/><polygon class="cls-1" points="33.84 39.2 33.84 32.62 41.78 32.62 41.78 33.96 35.67 33.96 35.67 39.2 33.84 39.2 33.84 39.2"/><path class="cls-1" d="M64.26,38.38a.82.82,0,0,0,.82.83.83.83,0,1,0,0-1.65.82.82,0,0,0-.82.82Zm.14,0a.68.68,0,1,1,.68.71.69.69,0,0,1-.68-.71Zm.36.48h.15v-.41h.16l.26.41h.16l-.27-.42a.25.25,0,0,0,.25-.26c0-.19-.11-.28-.33-.28h-.38v1Zm.15-.84h.2c.1,0,.21,0,.21.15s-.12.16-.25.16h-.16V38Z"/><polygon class="cls-2" points="10.03 0 53.13 0 53.13 28.21 10.03 28.21 10.03 0 10.03 0"/><path class="cls-1" d="M15.46,22.78H31A34.94,34.94,0,0,0,25,14.13l-9.51,8.65"/><path class="cls-1" d="M25.93,5.43l.25.1A33,33,0,0,1,34,9.8a66,66,0,0,1,7.58,6.38,86.13,86.13,0,0,1,5.9,6.33l.21.27H33.51a1.45,1.45,0,0,0-.12-.25,40.63,40.63,0,0,0-8.75-11.38,36.61,36.61,0,0,0-8.28-5.72Z"/><path class="cls-1" d="M47.2,5.43,43.31,8.94,40.2,11.73l-.27.24a47.56,47.56,0,0,0-9.45-6.54Z"/><path class="cls-2" d="M54.91.19V1.41h-.23V.19h-.44V0h1.12V.19ZM57,1.41V.23h0l-.46,1.18h-.15L55.88.23h0V1.41h-.23V0H56l.42,1.07L56.83,0h.36V1.41Z"/></g></g></svg>