<?xml version="1.0" standalone="no"?>
<!DOCTYPE svg PUBLIC "-//W3C//DTD SVG 20010904//EN"
 "http://www.w3.org/TR/2001/REC-SVG-20010904/DTD/svg10.dtd">
<svg version="1.0" xmlns="http://www.w3.org/2000/svg"
 width="300.000000pt" height="300.000000pt" viewBox="0 0 300.000000 300.000000"
 preserveAspectRatio="xMidYMid meet">
<metadata>
Created by potrace 1.14, written by Peter Selinger 2001-2017
</metadata>
<g transform="translate(0.000000,300.000000) scale(0.100000,-0.100000)"
fill="#000000" stroke="none">
<path d="M0 1500 l0 -1500 1500 0 1500 0 0 1500 0 1500 -1500 0 -1500 0 0
-1500z m1213 566 c310 -130 636 -368 1016 -741 167 -165 401 -415 401 -430 0
-3 -224 -5 -497 -5 l-498 0 -50 92 c-159 292 -432 619 -685 822 -92 73 -312
221 -406 273 l-59 32 337 1 336 0 105 -44z m1377 31 c-8 -8 -107 -96 -220
-197 -113 -101 -222 -199 -242 -218 l-37 -35 -63 55 c-134 116 -330 253 -513
357 l-89 51 589 0 c492 0 587 -2 575 -13z m-1494 -664 c124 -141 234 -299 320
-458 l46 -85 -546 -2 c-300 -2 -545 0 -544 3 6 13 654 598 663 599 6 0 33 -26
61 -57z"/>
</g>
</svg>
