<?xml version="1.0" standalone="no"?>
<!DOCTYPE svg PUBLIC "-//W3C//DTD SVG 20010904//EN"
 "http://www.w3.org/TR/2001/REC-SVG-20010904/DTD/svg10.dtd">
<svg version="1.0" xmlns="http://www.w3.org/2000/svg"
 width="700.000000pt" height="700.000000pt" viewBox="0 0 700.000000 700.000000"
 preserveAspectRatio="xMidYMid meet">
<metadata>
Created by potrace 1.11, written by Peter Selinger 2001-2013
</metadata>
<g transform="translate(0.000000,700.000000) scale(0.100000,-0.100000)"
fill="#000000" stroke="none">
<path d="M0 3500 l0 -2290 3500 0 3500 0 0 2290 0 2290 -3500 0 -3500 0 0
-2290z m2740 1350 c644 -261 1349 -737 2095 -1414 241 -218 688 -668 921 -926
174 -194 354 -403 354 -412 0 -4 -517 -8 -1148 -8 l-1149 0 -12 28 c-25 55
-157 291 -234 417 -503 824 -1191 1539 -1972 2047 -154 101 -345 213 -467 274
-49 24 -88 46 -88 49 0 3 352 4 783 3 l782 -3 135 -55z m3244 12 c-27 -26
-292 -264 -588 -530 l-537 -483 -51 43 c-472 401 -849 665 -1331 933 l-152 85
1355 0 1355 -1 -51 -47z m-3439 -1492 c266 -295 490 -606 697 -965 104 -181
171 -306 166 -311 -3 -2 -571 -3 -1263 -2 l-1259 3 765 697 c420 383 769 697
775 697 6 1 60 -53 119 -119z"/>
</g>
</svg>
